<?xml version="1.0" encoding="utf-8"?>
<!-- Generator: Adobe Illustrator 25.4.1, SVG Export Plug-In . SVG Version: 6.00 Build 0)  -->
<svg version="1.1" id="Layer_1" xmlns="http://www.w3.org/2000/svg" xmlns:xlink="http://www.w3.org/1999/xlink" x="0px" y="0px"
	 viewBox="0 0 48 48" style="enable-background:new 0 0 48 48;" xml:space="preserve">
<style type="text/css">
	.st0{fill:#E01432;}
	.st1{fill:#333333;}
</style>
<g>
	<path class="st0" d="M2.94,24.66c-0.16-0.38,0.04-0.64,0.43-0.74l0.54-0.13c0.35-0.09,0.54,0.06,0.74,0.39
		c0.29,0.47,0.85,0.78,1.59,0.78c0.86,0,1.43-0.38,1.43-0.96c0-0.44-0.34-0.8-1.01-1.02l-1.15-0.42c-1.05-0.34-2.34-1.12-2.35-2.49
		c0-1.62,1.4-2.63,3.13-2.63c1.38,0,2.35,0.61,2.83,1.62c0.19,0.37,0.01,0.66-0.37,0.77l-0.51,0.14c-0.35,0.1-0.57-0.04-0.78-0.34
		c-0.23-0.38-0.62-0.58-1.15-0.58c-0.63,0-1.17,0.32-1.17,0.9c0,0.32,0.14,0.66,0.92,0.95l1.15,0.42c1.73,0.58,2.37,1.49,2.4,2.6
		c0,1.73-1.48,2.65-3.36,2.65C4.61,26.56,3.41,25.83,2.94,24.66"/>
	<path class="st0" d="M10.03,22c0-2.49,1.92-4.56,4.68-4.56c2.77,0,4.68,2.07,4.68,4.56c0,2.49-1.92,4.56-4.68,4.56
		C11.95,26.56,10.03,24.49,10.03,22 M17.39,22c0-1.57-1.11-2.82-2.68-2.82c-1.57,0-2.66,1.25-2.66,2.82c0,1.57,1.1,2.82,2.66,2.82
		C16.28,24.82,17.39,23.57,17.39,22"/>
	<path class="st0" d="M26.39,24.75c-0.73,0-1.23-0.68-1.34-1.58c1.24-0.32,1.96-1.34,1.96-2.64c0-1.6-1.05-2.94-2.93-2.94h-3.39
		c-0.34,0-0.62,0.28-0.62,0.62v7.61c0,0.34,0.27,0.61,0.61,0.61h0.79c0.33,0,0.6-0.27,0.6-0.6v-2.55h1.18
		c0.1,0.99,0.84,3.16,3.02,3.16h0.74c0.15,0,0.28-0.13,0.28-0.28v-1.12c0-0.15-0.13-0.28-0.28-0.28H26.39z M23.8,21.83h-1.73v-2.55
		h1.73c0.71,0,1.17,0.55,1.17,1.29C24.97,21.27,24.52,21.83,23.8,21.83"/>
	<path class="st0" d="M30.04,19.28v2h2.85c0.39,0,0.61,0.21,0.61,0.61v0.34c0,0.39-0.21,0.62-0.61,0.62h-2.85v1.89h3.37
		c0.39,0,0.61,0.21,0.61,0.61v0.48c0,0.39-0.21,0.61-0.61,0.61h-4.76c-0.39,0-0.62-0.21-0.62-0.61v-7.63c0-0.39,0.23-0.61,0.62-0.61
		h4.76c0.39,0,0.61,0.21,0.61,0.61v0.48c0,0.39-0.21,0.61-0.61,0.61H30.04z"/>
	<path class="st0" d="M34.61,25.72L37.6,22l-2.98-3.71c-0.29-0.38-0.13-0.71,0.35-0.71h1c0.3,0,0.52,0.09,0.71,0.35l2.13,2.65
		l2.12-2.65c0.18-0.26,0.39-0.35,0.69-0.35h1.01c0.48,0,0.64,0.33,0.35,0.71L40,22l2.98,3.71c0.28,0.39,0.13,0.71-0.35,0.71h-1.04
		c-0.32,0-0.52-0.1-0.71-0.35L38.8,23.5l-2.1,2.57c-0.18,0.25-0.39,0.35-0.69,0.35h-1.05C34.5,26.42,34.33,26.11,34.61,25.72"/>
	<path class="st0" d="M43.46,18.4c0-0.47,0.36-0.85,0.83-0.85c0.47,0,0.83,0.38,0.83,0.85c0,0.47-0.36,0.85-0.83,0.85
		C43.82,19.25,43.46,18.87,43.46,18.4 M44.98,18.4c0-0.39-0.3-0.71-0.69-0.71c-0.39,0-0.69,0.32-0.69,0.71s0.3,0.71,0.69,0.71
		C44.68,19.11,44.98,18.79,44.98,18.4 M44.01,18.77v-0.74c0-0.03,0.02-0.05,0.05-0.05h0.29c0.17,0,0.27,0.13,0.27,0.28
		c0,0.12-0.06,0.21-0.18,0.25l0.15,0.26c0.02,0.03,0,0.06-0.04,0.06h-0.09c-0.03,0-0.04-0.01-0.06-0.04l-0.13-0.27h-0.1v0.26
		c0,0.03-0.02,0.05-0.05,0.05h-0.08C44.03,18.81,44.01,18.8,44.01,18.77 M44.33,18.37c0.07,0,0.11-0.05,0.11-0.12
		c0-0.07-0.04-0.14-0.11-0.14h-0.15v0.26H44.33z"/>
	<path class="st1" d="M3.6,30.44v-0.63L3,28.89c-0.04-0.06-0.01-0.11,0.06-0.11h0.11c0.05,0,0.08,0.02,0.11,0.06l0.46,0.74
		l0.47-0.74c0.02-0.04,0.06-0.06,0.11-0.06h0.11c0.07,0,0.1,0.05,0.06,0.11l-0.61,0.92v0.63c0,0.06-0.03,0.09-0.09,0.09H3.69
		C3.64,30.53,3.6,30.49,3.6,30.44"/>
	<path class="st1" d="M4.41,29.65c0-0.5,0.4-0.9,0.91-0.9c0.5,0,0.91,0.4,0.91,0.9c0,0.5-0.4,0.9-0.91,0.9
		C4.81,30.55,4.41,30.15,4.41,29.65 M5.95,29.65c0-0.38-0.29-0.66-0.64-0.66s-0.64,0.29-0.64,0.66c0,0.38,0.29,0.66,0.64,0.66
		S5.95,30.03,5.95,29.65"/>
	<path class="st1" d="M6.39,29.88v-1.01c0-0.06,0.03-0.09,0.09-0.09h0.08c0.06,0,0.09,0.03,0.09,0.09v1.01
		c0,0.29,0.2,0.44,0.43,0.44c0.23,0,0.43-0.14,0.43-0.44v-1.01c0-0.06,0.03-0.09,0.09-0.09h0.08c0.06,0,0.09,0.03,0.09,0.09v1.01
		c0,0.44-0.32,0.68-0.7,0.68C6.71,30.55,6.39,30.32,6.39,29.88"/>
	<path class="st1" d="M8.68,29.87H8.33v0.57c0,0.06-0.03,0.09-0.09,0.09H8.16c-0.06,0-0.09-0.03-0.09-0.09v-1.57
		c0-0.06,0.03-0.09,0.09-0.09h0.65c0.34,0,0.53,0.25,0.53,0.55c0,0.26-0.15,0.48-0.41,0.53c0.02,0.19,0.13,0.47,0.32,0.47
		c0.05,0,0.09-0.01,0.13-0.03c0.05-0.03,0.09-0.02,0.12,0.03l0.01,0.02c0.02,0.05,0.02,0.09-0.03,0.12
		c-0.07,0.05-0.16,0.07-0.25,0.07C8.82,30.55,8.7,30.08,8.68,29.87 M8.75,29.66c0.19,0,0.31-0.14,0.31-0.33
		c0-0.2-0.12-0.33-0.31-0.33H8.33v0.66H8.75z"/>
	<path class="st1" d="M10.46,30.45l0.08-0.34h-0.28c-0.04,0-0.07-0.03-0.06-0.07l0.02-0.07c0.01-0.04,0.03-0.05,0.07-0.05h0.3
		l0.14-0.57h-0.28c-0.04,0-0.07-0.03-0.05-0.07l0.02-0.07c0.01-0.04,0.03-0.05,0.07-0.05h0.29l0.08-0.31
		c0.01-0.04,0.03-0.05,0.07-0.05h0.08c0.04,0,0.07,0.02,0.06,0.07L11,29.14h0.33l0.08-0.31c0.01-0.04,0.03-0.05,0.07-0.05h0.08
		c0.04,0,0.07,0.02,0.06,0.07l-0.07,0.29h0.27c0.04,0,0.07,0.03,0.06,0.07l-0.02,0.07c-0.01,0.04-0.03,0.05-0.07,0.05H11.5
		l-0.14,0.57h0.27c0.05,0,0.07,0.03,0.05,0.07l-0.02,0.07c-0.01,0.04-0.03,0.05-0.07,0.05h-0.29l-0.09,0.35
		c-0.01,0.04-0.03,0.06-0.07,0.06h-0.09c-0.05,0-0.07-0.02-0.06-0.07l0.08-0.34h-0.33l-0.09,0.35c-0.01,0.04-0.03,0.06-0.07,0.06
		h-0.09C10.47,30.53,10.45,30.5,10.46,30.45 M11.14,29.91l0.14-0.57h-0.33l-0.14,0.57H11.14z"/>
	<path class="st1" d="M12.43,30.44v-1.35l-0.3,0.14c-0.05,0.02-0.1,0-0.12-0.05L12,29.13c-0.02-0.05,0-0.09,0.05-0.12l0.45-0.21
		c0.04-0.02,0.07-0.03,0.12-0.03c0.04,0,0.07,0.03,0.07,0.09v1.57c0,0.06-0.03,0.09-0.09,0.09h-0.07
		C12.46,30.53,12.43,30.49,12.43,30.44"/>
	<path class="st1" d="M14.78,28.87v0.04c0,0.06-0.03,0.09-0.09,0.09h-0.76v0.57h0.65c0.06,0,0.09,0.03,0.09,0.09v0.03
		c0,0.06-0.04,0.09-0.09,0.09h-0.65v0.66c0,0.06-0.03,0.09-0.09,0.09h-0.08c-0.06,0-0.09-0.03-0.09-0.09v-1.57
		c0-0.06,0.03-0.09,0.09-0.09h0.94C14.75,28.78,14.78,28.81,14.78,28.87"/>
	<path class="st1" d="M14.64,30.42l0.6-1.57c0.02-0.05,0.05-0.07,0.1-0.07h0.14c0.05,0,0.09,0.03,0.1,0.07l0.61,1.57
		c0.02,0.06,0,0.1-0.07,0.1h-0.08c-0.05,0-0.09-0.02-0.11-0.07l-0.11-0.28h-0.83l-0.11,0.28c-0.02,0.05-0.05,0.07-0.1,0.07h-0.08
		C14.64,30.53,14.62,30.48,14.64,30.42 M15.76,29.95l-0.34-0.92l-0.34,0.92H15.76z"/>
	<path class="st1" d="M16.34,30.43l0.15-1.57c0.01-0.06,0.04-0.08,0.09-0.08h0.13c0.05,0,0.08,0.02,0.1,0.07l0.54,1.3l0.54-1.3
		c0.02-0.05,0.05-0.07,0.1-0.07h0.13c0.06,0,0.09,0.03,0.09,0.08l0.15,1.57c0.01,0.06-0.03,0.09-0.09,0.09h-0.08
		c-0.06,0-0.09-0.03-0.1-0.08L18,29.18l-0.52,1.25c-0.02,0.05-0.05,0.07-0.1,0.07h-0.04c-0.05,0-0.08-0.02-0.1-0.07l-0.52-1.25
		l-0.11,1.26c-0.01,0.06-0.04,0.08-0.09,0.08h-0.08C16.37,30.53,16.33,30.49,16.34,30.43"/>
	<path class="st1" d="M18.67,30.44v-1.57c0-0.06,0.03-0.09,0.09-0.09h0.08c0.06,0,0.09,0.03,0.09,0.09v1.57
		c0,0.06-0.03,0.09-0.09,0.09h-0.08C18.71,30.53,18.67,30.49,18.67,30.44"/>
	<path class="st1" d="M19.25,30.44v-1.57c0-0.06,0.03-0.09,0.09-0.09h0.08c0.06,0,0.09,0.03,0.09,0.09v1.44h0.71
		c0.06,0,0.09,0.03,0.09,0.09v0.04c0,0.06-0.04,0.09-0.09,0.09h-0.88C19.28,30.53,19.25,30.49,19.25,30.44"/>
	<path class="st1" d="M20.69,30.44v-0.63l-0.61-0.92c-0.04-0.06-0.01-0.11,0.06-0.11h0.11c0.05,0,0.08,0.02,0.11,0.06l0.46,0.74
		l0.47-0.74c0.02-0.04,0.06-0.06,0.11-0.06h0.11c0.07,0,0.1,0.05,0.06,0.11l-0.61,0.92v0.63c0,0.06-0.04,0.09-0.09,0.09h-0.08
		C20.72,30.53,20.69,30.49,20.69,30.44"/>
	<path class="st1" d="M21.78,29.33l-0.01-0.02c-0.01-0.02-0.01-0.04,0.02-0.05c0.11-0.05,0.15-0.15,0.15-0.24
		c-0.02,0.01-0.03,0.01-0.04,0.01c-0.09,0.01-0.14-0.07-0.14-0.14c0-0.09,0.06-0.16,0.18-0.16c0.14,0,0.18,0.14,0.18,0.21
		c0,0.19-0.1,0.35-0.28,0.42C21.81,29.36,21.79,29.36,21.78,29.33"/>
	<path class="st1" d="M22.27,30.2c-0.03-0.05,0-0.1,0.06-0.11l0.07-0.02c0.05-0.01,0.08,0.01,0.11,0.06
		c0.06,0.11,0.19,0.19,0.37,0.19c0.22,0,0.36-0.11,0.36-0.26c0-0.13-0.11-0.21-0.25-0.27l-0.26-0.09c-0.33-0.11-0.41-0.31-0.41-0.47
		c0-0.3,0.26-0.49,0.57-0.49c0.27,0,0.47,0.13,0.55,0.33c0.02,0.05,0,0.1-0.06,0.11l-0.06,0.02c-0.05,0.02-0.09,0-0.11-0.06
		c-0.06-0.11-0.16-0.17-0.31-0.17c-0.16,0-0.3,0.09-0.3,0.24c0,0.07,0.02,0.17,0.22,0.24l0.26,0.1c0.29,0.09,0.43,0.29,0.43,0.47
		c0,0.31-0.25,0.51-0.61,0.51C22.57,30.55,22.36,30.4,22.27,30.2"/>
	<path class="st1" d="M24.4,30.44v-1.57c0-0.06,0.03-0.09,0.09-0.09h0.48c0.56,0,0.9,0.39,0.9,0.87c0,0.48-0.34,0.87-0.9,0.87h-0.48
		C24.43,30.53,24.4,30.49,24.4,30.44 M24.97,30.31c0.39,0,0.63-0.29,0.63-0.66c0-0.36-0.24-0.66-0.63-0.66h-0.3v1.31H24.97z"/>
	<path class="st1" d="M25.83,30.42l0.6-1.57c0.02-0.05,0.05-0.07,0.1-0.07h0.14c0.05,0,0.09,0.03,0.1,0.07l0.61,1.57
		c0.02,0.06,0,0.1-0.07,0.1h-0.08c-0.05,0-0.09-0.02-0.11-0.07l-0.11-0.28h-0.83l-0.11,0.28c-0.02,0.05-0.05,0.07-0.1,0.07H25.9
		C25.83,30.53,25.8,30.48,25.83,30.42 M26.95,29.95l-0.34-0.92l-0.34,0.92H26.95z"/>
	<path class="st1" d="M27.57,30.44v-1.57c0-0.06,0.03-0.09,0.09-0.09h0.08c0.06,0,0.09,0.03,0.09,0.09v1.57
		c0,0.06-0.03,0.09-0.09,0.09h-0.08C27.6,30.53,27.57,30.49,27.57,30.44"/>
	<path class="st1" d="M28.14,30.44v-1.57c0-0.06,0.03-0.09,0.09-0.09h0.08c0.06,0,0.09,0.03,0.09,0.09v1.44h0.71
		c0.06,0,0.09,0.03,0.09,0.09v0.04c0,0.06-0.04,0.09-0.09,0.09h-0.88C28.17,30.53,28.14,30.49,28.14,30.44"/>
	<path class="st1" d="M29.54,30.44v-0.63l-0.61-0.92c-0.04-0.06-0.01-0.11,0.06-0.11h0.11c0.05,0,0.08,0.02,0.11,0.06l0.46,0.74
		l0.47-0.74c0.02-0.04,0.06-0.06,0.11-0.06h0.11c0.07,0,0.1,0.05,0.06,0.11l-0.61,0.92v0.63c0,0.06-0.03,0.09-0.09,0.09h-0.08
		C29.57,30.53,29.54,30.49,29.54,30.44"/>
	<path class="st1" d="M31.19,29.65c0-0.49,0.35-0.9,0.95-0.9c0.22,0,0.37,0.05,0.51,0.14c0.05,0.03,0.06,0.07,0.03,0.12l-0.02,0.04
		c-0.03,0.05-0.07,0.06-0.12,0.03c-0.11-0.06-0.25-0.1-0.39-0.1c-0.43,0-0.68,0.3-0.68,0.66c0,0.36,0.25,0.66,0.68,0.66
		c0.14,0,0.28-0.04,0.39-0.1c0.05-0.03,0.1-0.02,0.12,0.03l0.02,0.04c0.03,0.05,0.02,0.09-0.01,0.11c-0.14,0.09-0.3,0.15-0.52,0.15
		C31.54,30.55,31.19,30.14,31.19,29.65"/>
	<path class="st1" d="M32.75,29.65c0-0.5,0.4-0.9,0.91-0.9c0.5,0,0.91,0.4,0.91,0.9c0,0.5-0.4,0.9-0.91,0.9
		C33.15,30.55,32.75,30.15,32.75,29.65 M34.3,29.65c0-0.38-0.29-0.66-0.64-0.66c-0.35,0-0.64,0.29-0.64,0.66
		c0,0.38,0.29,0.66,0.64,0.66C34.01,30.32,34.3,30.03,34.3,29.65"/>
	<path class="st1" d="M34.7,30.43l0.15-1.57c0.01-0.06,0.04-0.08,0.09-0.08h0.13c0.05,0,0.08,0.02,0.1,0.07l0.54,1.3l0.54-1.3
		c0.02-0.05,0.05-0.07,0.1-0.07h0.13c0.06,0,0.09,0.03,0.09,0.08l0.15,1.57c0.01,0.06-0.03,0.09-0.09,0.09h-0.08
		c-0.06,0-0.09-0.03-0.1-0.08l-0.11-1.26l-0.52,1.25c-0.02,0.05-0.05,0.07-0.1,0.07H35.7c-0.05,0-0.08-0.02-0.1-0.07l-0.52-1.25
		l-0.11,1.26c0,0.06-0.04,0.08-0.09,0.08h-0.08C34.73,30.53,34.69,30.49,34.7,30.43"/>
	<path class="st1" d="M38.16,28.87v0.04c0,0.06-0.03,0.09-0.09,0.09h-0.76v0.57h0.65c0.06,0,0.09,0.03,0.09,0.09v0.03
		c0,0.06-0.04,0.09-0.09,0.09h-0.65v0.66c0,0.06-0.03,0.09-0.09,0.09h-0.08c-0.06,0-0.09-0.03-0.09-0.09v-1.57
		c0-0.06,0.03-0.09,0.09-0.09h0.94C38.13,28.78,38.16,28.81,38.16,28.87"/>
	<path class="st1" d="M38.24,29.65c0-0.5,0.4-0.9,0.91-0.9c0.5,0,0.91,0.4,0.91,0.9c0,0.5-0.4,0.9-0.91,0.9
		C38.65,30.55,38.24,30.15,38.24,29.65 M39.79,29.65c0-0.38-0.29-0.66-0.64-0.66c-0.35,0-0.64,0.29-0.64,0.66
		c0,0.38,0.29,0.66,0.64,0.66C39.5,30.32,39.79,30.03,39.79,29.65"/>
	<path class="st1" d="M40.92,29.87h-0.34v0.57c0,0.06-0.03,0.09-0.09,0.09H40.4c-0.06,0-0.09-0.03-0.09-0.09v-1.57
		c0-0.06,0.03-0.09,0.09-0.09h0.65c0.34,0,0.53,0.25,0.53,0.55c0,0.26-0.15,0.48-0.41,0.53c0.02,0.19,0.13,0.47,0.32,0.47
		c0.05,0,0.09-0.01,0.13-0.03c0.05-0.03,0.09-0.02,0.12,0.03l0.01,0.02c0.02,0.05,0.02,0.09-0.03,0.12
		c-0.07,0.05-0.16,0.07-0.25,0.07C41.06,30.55,40.94,30.08,40.92,29.87 M41,29.66c0.19,0,0.31-0.14,0.31-0.33
		c0-0.2-0.12-0.33-0.31-0.33h-0.42v0.66H41z"/>
	<path class="st1" d="M43.11,28.87v0.04c0,0.06-0.03,0.09-0.09,0.09h-0.49v1.44c0,0.06-0.03,0.09-0.09,0.09h-0.08
		c-0.06,0-0.09-0.03-0.09-0.09V29h-0.49c-0.05,0-0.09-0.03-0.09-0.09v-0.04c0-0.06,0.04-0.09,0.09-0.09h1.24
		C43.08,28.78,43.11,28.81,43.11,28.87"/>
</g>
</svg>
